HIERARCHY 
ROOT hip 
{ 
  OFFSET 0 0 0
  CHANNELS 6 Xposition Yposition Zposition Zrotation Yrotation Xrotation 
  JOINT abdomen 
  { 
    OFFSET 0 0.517203 -0.018288
    CHANNELS 3 Zrotation Xrotation Yrotation 
    JOINT chest 
    { 
      OFFSET 0 0.292608 -0.012192
      CHANNELS 3 Zrotation Xrotation Yrotation 
      JOINT neck 
      { 
        OFFSET 0 0.554735 -0.054864
        CHANNELS 3 Zrotation Xrotation Yrotation 
        JOINT head 
        { 
          OFFSET -0.006096 0.176783 0.03048
          CHANNELS 3 Zrotation Xrotation Yrotation 
          JOINT leftEye 
          { 
            OFFSET 0.103632 0.201168 0.201168
            CHANNELS 3 Zrotation Xrotation Yrotation 
            End Site 
            { 
              OFFSET 0.025 0 0
            } 
          } 
          JOINT rightEye 
          { 
            OFFSET -0.09144 0.201168 0.201168
            CHANNELS 3 Zrotation Xrotation Yrotation 
            End Site 
            { 
              OFFSET 0.025 0 0
            } 
          } 
        } 
      } 
      JOINT rCollar 
      { 
        OFFSET -0.067056 0.481585 -0.12192
        CHANNELS 3 Zrotation Xrotation Yrotation 
        JOINT rShldr 
        { 
          OFFSET -0.219456 -0.0487682 0.036576
          CHANNELS 3 Zrotation Xrotation Yrotation 
          JOINT rForeArm 
          { 
            OFFSET -0.704355 -0.0427875 0.012192
            CHANNELS 3 Zrotation Xrotation Yrotation 
            JOINT rHand 
            { 
              OFFSET -0.564698 0.0193302 0.176784
              CHANNELS 3 Zrotation Xrotation Yrotation 
              JOINT rThumb1 
              { 
                OFFSET -0.03048 -0.0121979 0.085344
                CHANNELS 3 Zrotation Xrotation Yrotation 
                JOINT rThumb2 
                { 
                  OFFSET -0.0842588 -0.0131122 0.085344
                  CHANNELS 3 Zrotation Xrotation Yrotation 
                  End Site 
                  { 
                    OFFSET -0.0445677 -0.0295535 0.0357623
                  } 
                } 
              } 
              JOINT rIndex1 
              { 
                OFFSET -0.193987 0.0234573 0.140208
                CHANNELS 3 Zrotation Xrotation Yrotation 
                JOINT rIndex2 
                { 
                  OFFSET -0.0635143 -0.0221043 0.0391345
                  CHANNELS 3 Zrotation Xrotation Yrotation 
                  End Site 
                  { 
                    OFFSET -0.0406298 -0.00587005 0.0291255
                  } 
                } 
              } 
              JOINT rMid1 
              { 
                OFFSET -0.206179 0.0295532 0.085344
                CHANNELS 3 Zrotation Xrotation Yrotation 
                JOINT rMid2 
                { 
                  OFFSET -0.0775413 -0.0147526 0.0266175
                  CHANNELS 3 Zrotation Xrotation Yrotation 
                  End Site 
                  { 
                    OFFSET -0.0621368 -0.00822258 0.0209355
                  } 
                } 
              } 
              JOINT rRing1 
              { 
                OFFSET -0.220706 0.0136669 0.0379195
                CHANNELS 3 Zrotation Xrotation Yrotation 
                JOINT rRing2 
                { 
                  OFFSET -0.0652335 -0.0204945 -0.00049622
                  CHANNELS 3 Zrotation Xrotation Yrotation 
                  End Site 
                  { 
                    OFFSET -0.0584605 -0.0073513 0.0042032
                  } 
                } 
              } 
              JOINT rPinky1 
              { 
                OFFSET -0.206801 -0.00119476 -0.01146
                CHANNELS 3 Zrotation Xrotation Yrotation 
                JOINT rPinky2 
                { 
                  OFFSET -0.0456835 -0.0161846 -0.0175246
                  CHANNELS 3 Zrotation Xrotation Yrotation 
                  End Site 
                  { 
                    OFFSET -0.0423063 -0.0129417 -0.0151793
                  } 
                } 
              } 
            } 
          } 
        } 
      } 
      JOINT lCollar 
      { 
        OFFSET 0.067056 0.481585 -0.12192
        CHANNELS 3 Zrotation Xrotation Yrotation 
        JOINT lShldr 
        { 
          OFFSET 0.219456 -0.0487682 0.036576
          CHANNELS 3 Zrotation Xrotation Yrotation 
          JOINT lForeArm 
          { 
            OFFSET 0.704355 -0.0427875 0.012192
            CHANNELS 3 Zrotation Xrotation Yrotation 
            JOINT lHand 
            { 
              OFFSET 0.564698 0.0193302 0.176784
              CHANNELS 3 Zrotation Xrotation Yrotation 
              JOINT lThumb1 
              { 
                OFFSET 0.03048 -0.0121979 0.085344
                CHANNELS 3 Zrotation Xrotation Yrotation 
                JOINT lThumb2 
                { 
                  OFFSET 0.0842588 -0.0131122 0.085344
                  CHANNELS 3 Zrotation Xrotation Yrotation 
                  End Site 
                  { 
                    OFFSET 0.0445677 -0.0295535 0.0357623
                  } 
                } 
              } 
              JOINT lIndex1 
              { 
                OFFSET 0.193987 0.0234573 0.140208
                CHANNELS 3 Zrotation Xrotation Yrotation 
                JOINT lIndex2 
                { 
                  OFFSET 0.0635143 -0.0221043 0.0391345
                  CHANNELS 3 Zrotation Xrotation Yrotation 
                  End Site 
                  { 
                    OFFSET 0.0406298 -0.00587005 0.0291255
                  } 
                } 
              } 
              JOINT lMid1 
              { 
                OFFSET 0.206179 0.0295532 0.085344
                CHANNELS 3 Zrotation Xrotation Yrotation 
                JOINT lMid2 
                { 
                  OFFSET 0.0775413 -0.0147526 0.0266175
                  CHANNELS 3 Zrotation Xrotation Yrotation 
                  End Site 
                  { 
                    OFFSET 0.0621368 -0.00822258 0.0209355
                  } 
                } 
              } 
              JOINT lRing1 
              { 
                OFFSET 0.220706 0.0136669 0.0379195
                CHANNELS 3 Zrotation Xrotation Yrotation 
                JOINT lRing2 
                { 
                  OFFSET 0.0652335 -0.0204945 -0.00049622
                  CHANNELS 3 Zrotation Xrotation Yrotation 
                  End Site 
                  { 
                    OFFSET 0.0584605 -0.0073513 0.0042032
                  } 
                } 
              } 
              JOINT lPinky1 
              { 
                OFFSET 0.206801 -0.00119476 -0.01146
                CHANNELS 3 Zrotation Xrotation Yrotation 
                JOINT lPinky2 
                { 
                  OFFSET 0.0456835 -0.0161846 -0.0175246
                  CHANNELS 3 Zrotation Xrotation Yrotation 
                  End Site 
                  { 
                    OFFSET 0.0423063 -0.0129417 -0.0151793
                  } 
                } 
              } 
            } 
          } 
        } 
      } 
    } 
  } 
  JOINT rButtock 
  { 
    OFFSET -0.219456 0.108771 0.03048
    CHANNELS 3 Zrotation Xrotation Yrotation 
    JOINT rThigh 
    { 
      OFFSET 0 -0.0426718 -0.054864
      CHANNELS 3 Zrotation Xrotation Yrotation 
      JOINT rShin 
      { 
        OFFSET 0 -0.920498 0.018288
        CHANNELS 3 Zrotation Xrotation Yrotation 
        JOINT rFoot 
        { 
          OFFSET 0.018288 -1.12776 -0.128016
          CHANNELS 3 Zrotation Xrotation Yrotation 
          End Site 
          { 
            OFFSET -0.0280525 -0.092491 0.302575
          } 
        } 
      } 
    } 
  } 
  JOINT lButtock 
  { 
    OFFSET 0.219456 0.108771 0.03048
    CHANNELS 3 Zrotation Xrotation Yrotation 
    JOINT lThigh 
    { 
      OFFSET 0 -0.0426718 -0.054864
      CHANNELS 3 Zrotation Xrotation Yrotation 
      JOINT lShin 
      { 
        OFFSET 0 -0.920498 0.018288
        CHANNELS 3 Zrotation Xrotation Yrotation 
        JOINT lFoot 
        { 
          OFFSET -0.018288 -1.12776 -0.128016
          CHANNELS 3 Zrotation Xrotation Yrotation 
          End Site 
          { 
            OFFSET 0.0280525 -0.092491 0.302575
          } 
        } 
      } 
    } 
  } 
} 
MOTION 
Frames:	6 
Frame Time:	0.00833333 
0 2.13767 0 0 0 0 2.23576 -0.000460508 0.0604419 0.6158 0.00897179 0.106591 -9.79472e-15 -7.95139e-16 -1.98785e-16 -2.9886e-14 3.18055e-15 -5.73059e-16 -0 0 0 -0 0 0 -4.87209e-15 -6.56145e-17 9.93923e-17 -9.90332e-14 -1.14922e-15 -1.59028e-15 -1.73604e-12 4.70523e-13 -5.08889e-14 -1.97894e-11 -7.58388e-13 -4.19833e-13 -4.66955e-11 -6.24422e-13 -1.00824e-12 -8.06473e-11 -1.08139e-12 -1.75328e-12 -4.66862e-11 -6.20606e-13 -1.02096e-12 7.73091 5.47488 0.417314 -4.66936e-11 -6.23985e-13 -1.00824e-12 2.90554 0.965183 0.102902 -4.66788e-11 -6.23488e-13 -1.01698e-12 10.2786 0.731801 0.0259123 -4.66983e-11 -6.24979e-13 -1.01778e-12 2.22167 -0.733487 -0.20892 -4.96808e-15 -6.46438e-17 -2.98177e-16 -1.03392e-13 -1.26104e-15 -3.57812e-15 -1.72515e-12 -5.66536e-13 -3.18055e-15 -1.9821e-11 2.85977e-13 -4.64361e-13 -4.67295e-11 -6.10276e-13 -1.02096e-12 -8.06966e-11 -1.05594e-12 -1.75328e-12 -4.67367e-11 -6.07088e-13 -1.01778e-12 -7.73091 5.47488 -0.417314 -4.67317e-11 -6.09474e-13 -1.02414e-12 -2.90554 0.965183 -0.102902 -4.67431e-11 -6.09474e-13 -1.01539e-12 -10.2786 0.731801 -0.0259123 -4.67261e-11 -6.11462e-13 -1.02732e-12 -2.22167 -0.733487 0.20892 -2.03217e-16 0 -3.88251e-19 2.21404 -7.80141 -0.224403 0.00520536 8.55917 0.135731 -0.55127 -0.766364 0.0465015 2.03217e-16 0 3.88251e-19 1.18642 -1.92859 -0.00258262 0.00907286 -2.07858 0.0748205 0.51111 3.99848 -0.140181 
0.0106675 2.11709 -0.07396 -1.9382 2.8903 3.7528 2.23922 -1.79928 0.317026 0.238616 1.73591 0.206647 -0.662428 4.62112 -1.13272 4.39902 -5.43151 -1.52443 -0 0 0 -0 0 0 -2.16787e-14 2.54162e-14 4.69978e-15 22.836 8.22037 -0.334033 -4.05152 -1.80863 6.3626 0.00431668 1.45751 0.2046 1.70063e-10 -5.26022e-11 -1.66094e-10 2.92896e-10 -8.94661e-11 -2.88864e-10 1.70068e-10 -5.2599e-11 -1.66107e-10 7.73091 5.47488 0.417314 1.70066e-10 -5.26028e-11 -1.66093e-10 2.90554 0.965183 0.102902 1.70075e-10 -5.26002e-11 -1.66101e-10 10.2786 0.731801 0.0259123 1.70059e-10 -5.26004e-11 -1.661e-10 2.22167 -0.733487 -0.20892 -2.17874e-14 2.54151e-14 4.29988e-15 -20.8279 10.6148 -2.42446 2.87258 -1.11803 -4.66951 -6.00781e-05 -0.171931 0.0241629 -1.02164e-10 9.44041e-11 2.6558e-10 -1.76407e-10 1.6298e-10 4.59018e-10 -1.0217e-10 9.44066e-11 2.65583e-10 -7.73091 5.47488 -0.417314 -1.02171e-10 9.44041e-11 2.65572e-10 -2.90554 0.965183 -0.102902 -1.02175e-10 9.44063e-11 2.65583e-10 -10.2786 0.731801 -0.0259123 -1.02161e-10 9.4406e-11 2.65572e-10 -2.22167 -0.733487 0.20892 -2.03217e-16 0 -3.88251e-19 1.86014 -9.94541 1.41623 0.0297031 12.2675 0.220519 -0.566677 -7.02147 -4.04435 2.03217e-16 0 3.88251e-19 3.36991 -6.78967 -1.47746 0.0289484 6.33927 -0.0224683 0.0122812 -1.2274 -2.8886 
0.0107325 2.11688 -0.07402 -1.9725 2.9354 3.7571 2.25874 -3.70125 0.58708 -0.166158 3.56194 0.312197 -1.15844 9.4958 -2.35433 8.72167 -11.1549 -3.18289 -0 0 0 -0 0 0 -3.8594e-14 5.42909e-14 9.3025e-15 47.0833 16.9107 -0.709148 -7.90031 -3.646 13.1084 -0.00245056 2.99688 0.42114 3.95789e-10 -9.50402e-11 -3.6163e-10 6.8176e-10 -1.61211e-10 -6.28719e-10 3.95791e-10 -9.50375e-11 -3.61643e-10 7.73091 5.47488 0.417314 3.95794e-10 -9.50418e-11 -3.61628e-10 2.90554 0.965183 0.102902 3.95796e-10 -9.5037e-11 -3.61636e-10 10.2786 0.731801 0.0259123 3.95785e-10 -9.50359e-11 -3.61633e-10 2.22167 -0.733487 -0.20892 -3.87171e-14 5.42874e-14 8.89872e-15 -41.8023 21.7675 -5.27913 5.71271 -2.27566 -9.61288 3.40805e-05 -0.353612 0.0496969 -1.77345e-10 1.83212e-10 5.53026e-10 -3.06217e-10 3.16269e-10 9.55834e-10 -1.77351e-10 1.83214e-10 5.53029e-10 -7.73091 5.47488 -0.417314 -1.77357e-10 1.83211e-10 5.53014e-10 -2.90554 0.965183 -0.102902 -1.77353e-10 1.83216e-10 5.53027e-10 -10.2786 0.731801 -0.0259123 -1.77343e-10 1.83217e-10 5.53018e-10 -2.22167 -0.733487 0.20892 -2.03217e-16 0 -3.88251e-19 1.6197 -12.2001 3.17303 0.0431505 16.1873 0.31387 -1.57531 -13.5229 -8.54163 2.03217e-16 0 3.88251e-19 5.39881 -11.9191 -3.08328 0.0817292 15.2385 -0.129634 -1.06111 -6.72993 -5.82021 
0.0109625 2.11717 -0.0738725 -1.9968 2.977 3.7527 2.29466 -5.39642 0.83342 -0.533923 5.18969 0.408149 -1.42555 13.8413 -3.48853 12.3004 -16.2474 -4.74256 -0 0 0 -0 0 0 -5.5292e-14 7.63799e-14 1.39006e-14 68.8201 24.6576 -1.09132 -10.9701 -5.15879 19.1589 -0.018355 4.3723 0.615392 6.03579e-10 -1.56558e-10 -4.96266e-10 1.03998e-09 -2.66236e-10 -8.63085e-10 6.03577e-10 -1.56556e-10 -4.96278e-10 7.73091 5.47488 0.417314 6.03586e-10 -1.5656e-10 -4.96262e-10 2.90554 0.965183 0.102902 6.03582e-10 -1.56554e-10 -4.9627e-10 10.2786 0.731801 0.0259123 6.03574e-10 -1.56551e-10 -4.96265e-10 2.22167 -0.733487 -0.20892 -5.54262e-14 7.63745e-14 1.3496e-14 -59.3995 31.5958 -8.40129 8.07634 -3.26509 -14.0291 0.000254823 -0.515792 0.0724913 -2.13033e-10 2.84433e-10 7.9878e-10 -3.67829e-10 4.91051e-10 1.38056e-09 -2.13038e-10 2.84434e-10 7.98783e-10 -7.73091 5.47488 -0.417314 -2.13048e-10 2.84431e-10 7.98764e-10 -2.90554 0.965183 -0.102902 -2.13039e-10 2.84438e-10 7.98779e-10 -10.2786 0.731801 -0.0259123 -2.13031e-10 2.84441e-10 7.98772e-10 -2.22167 -0.733487 0.20892 -2.03217e-16 0 -3.88251e-19 1.53112 -14.1948 4.77563 0.0436321 19.6839 0.401472 -3.38766 -19.1289 -12.8559 2.03217e-16 0 3.88251e-19 6.95861 -16.4685 -4.58458 0.159379 23.1748 -0.235542 -2.50715 -11.5573 -8.55891 
0.0108275 2.11723 -0.0739425 -2.021 2.9774 3.7415 2.33789 -6.57503 1.0175 -0.796487 6.3218 0.478871 -1.52022 16.8849 -4.31881 14.6615 -19.8073 -5.89505 -0 0 0 -0 0 0 -7.14466e-14 8.15042e-14 1.8487e-14 84.0553 30.0494 -1.408 -12.9189 -6.1143 23.4031 -0.0350762 5.33808 0.752419 7.66528e-10 -2.65773e-10 -4.78648e-10 1.3216e-09 -4.54457e-10 -8.33731e-10 7.66526e-10 -2.65773e-10 -4.78661e-10 7.73091 5.47488 0.417314 7.66535e-10 -2.65778e-10 -4.78645e-10 2.90554 0.965183 0.102902 7.66529e-10 -2.6577e-10 -4.78651e-10 10.2786 0.731801 0.0259123 7.66522e-10 -2.65767e-10 -4.78645e-10 2.22167 -0.733487 -0.20892 -7.15836e-14 8.14984e-14 1.80894e-14 -70.8409 38.3452 -11.1414 9.62907 -3.91896 -17.1077 0.00048559 -0.629216 0.0884341 -1.49987e-10 4.16688e-10 9.40306e-10 -2.58946e-10 7.19562e-10 1.62506e-09 -1.49991e-10 4.16688e-10 9.40309e-10 -7.73091 5.47488 -0.417314 -1.50005e-10 4.16685e-10 9.40287e-10 -2.90554 0.965183 -0.102902 -1.49991e-10 4.16693e-10 9.40302e-10 -10.2786 0.731801 -0.0259123 -1.49984e-10 4.16697e-10 9.40296e-10 -2.22167 -0.733487 0.20892 -2.03217e-16 0 -3.88251e-19 1.55379 -15.5717 5.93075 0.037071 22.1228 0.465474 -5.2042 -22.8753 -16.1216 2.03217e-16 0 3.88251e-19 7.90639 -19.6085 -5.68025 0.233514 28.7043 -0.318983 -3.81104 -14.8161 -10.6258 
0.009795 2.11738 -0.07396 -2.1615 2.926 3.7252 2.38347 -7.02976 1.11881 -0.911513 6.76178 0.51558 -1.56374 18.1236 -4.66247 15.6432 -21.261 -6.35779 -0 0 0 -0 0 0 -9.08056e-14 6.06231e-14 2.57779e-14 90.0707 32.138 -1.56794 -13.6474 -6.46645 25.0839 -0.0430479 5.72677 0.807741 9.03348e-10 -4.85418e-10 -2.0303e-10 1.55954e-09 -8.34642e-10 -3.5782e-10 9.03348e-10 -4.8542e-10 -2.03043e-10 7.73091 5.47488 0.417314 9.03354e-10 -4.85425e-10 -2.03029e-10 2.90554 0.965183 0.102902 9.03349e-10 -4.85418e-10 -2.03033e-10 10.2786 0.731801 0.0259123 9.03342e-10 -4.85415e-10 -2.03024e-10 2.22167 -0.733487 -0.20892 -9.09361e-14 6.06192e-14 2.53971e-14 -75.0549 41.001 -12.4212 10.2085 -4.16083 -18.2982 0.00060592 -0.679986 0.0955706 8.73579e-11 6.3857e-10 9.58918e-10 1.5094e-10 1.10314e-09 1.65698e-09 8.73538e-11 6.38571e-10 9.58923e-10 -7.73091 5.47488 -0.417314 8.73389e-11 6.38566e-10 9.58898e-10 -2.90554 0.965183 -0.102902 8.73536e-11 6.38575e-10 9.58914e-10 -10.2786 0.731801 -0.0259123 8.73606e-11 6.38579e-10 9.58907e-10 -2.22167 -0.733487 0.20892 -2.03217e-16 0 -3.88251e-19 1.61817 -16.1033 6.4314 0.0327449 23.0799 0.490749 -6.06365 -24.2979 -17.5134 2.03217e-16 0 3.88251e-19 8.26876 -20.797 -6.1145 0.267741 30.864 -0.353117 -4.42296 -15.9368 -11.6442 
